<svg xmlns="http://www.w3.org/2000/svg" viewBox="0 0 223.8 190.4"><g fill="#8BCB0A"><path d="M46.7 171c0-.3.1-.5.2-.7.1-.2.4-.3.6-.3h14.7c.5 0 .8.3.8.9v3.7c0 .6-.3.9-.8.9s-.8-.3-.8-.9v-3h-5.7v16.9h2c.2 0 .4.1.6.2.1.2.2.3.2.6 0 .2-.1.4-.2.6-.1.1-.3.2-.6.2H52c-.2 0-.4-.1-.6-.2-.1-.1-.2-.3-.2-.6 0-.2.1-.4.2-.6.1-.2.3-.2.6-.2h2v-16.9h-5.7v3c0 .6-.3.9-.8.9s-.8-.3-.8-.9V171zM65.6 190.1c-.2 0-.4-.1-.6-.2-.1-.1-.2-.3-.2-.6 0-.2.1-.4.2-.6.1-.2.3-.2.6-.2h1.8v-16.9h-1.8c-.2 0-.4-.1-.6-.2-.1-.1-.2-.3-.2-.6 0-.2.1-.4.2-.6.1-.2.3-.2.6-.2h3.5c1.1-.1 2.2-.1 3.2-.1 4.8 0 7.2 1.9 7.2 5.6 0 1.5-.4 2.6-1.1 3.6-.7.9-1.7 1.6-3 2.1l4.5 7.3h1.5c.2 0 .4.1.6.2.1.2.2.3.2.6 0 .2-.1.4-.2.6-.1.1-.3.2-.6.2h-2.1c-.3 0-.6-.2-.9-.7l-4.8-7.8c-.5.1-1.1.1-1.8.1-1 0-1.9-.1-2.7-.2v6.9H71c.2 0 .4.1.6.2.1.2.2.3.2.6 0 .2-.1.4-.2.6-.1.1-.3.2-.6.2h-5.4zm3.6-18.5v8.4c.9.1 1.8.2 2.6.2 2.1 0 3.6-.4 4.6-1.1s1.5-1.9 1.5-3.6c0-1.5-.5-2.5-1.5-3.1-1-.6-2.4-.9-4.1-.9-.4 0-1.4 0-3.1.1z"/><path d="M82.5 190.1c-.2 0-.4-.1-.6-.2-.1-.1-.2-.3-.2-.6 0-.2.1-.4.2-.6.1-.2.3-.2.6-.2h1.2l7-17.9c.2-.5.5-.8 1-.8.4 0 .7.2.9.7l7.2 18h1.2c.2 0 .4.1.6.2.1.2.2.3.2.6 0 .2-.1.4-.2.6-.1.1-.3.2-.6.2h-4.6c-.2 0-.4-.1-.6-.2-.1-.1-.2-.3-.2-.6 0-.2.1-.4.2-.6.1-.2.3-.2.6-.2h1.5l-1.9-4.8h-8.8l-1.8 4.8H87c.2 0 .4.1.6.2.1.2.2.3.2.6 0 .2-.1.4-.2.6-.1.1-.3.2-.6.2h-4.5zm5.4-8h7.6l-3.9-9.7-3.7 9.7zM116.1 172.5c-1.4-.8-2.8-1.1-4.4-1.1-2.4 0-4.2.8-5.6 2.5-1.3 1.7-2 3.8-2 6.3 0 2.7.7 4.8 2.1 6.4 1.4 1.5 3.2 2.3 5.4 2.3 1.8 0 3.4-.5 4.9-1.5v-2.5c0-.6.3-.9.8-.9s.8.3.8.9v2.6c0 .5-.3.9-.8 1.2-1.7 1.2-3.7 1.7-5.9 1.7-3.1 0-5.4-.9-6.9-2.8-1.5-1.8-2.3-4.3-2.3-7.5 0-3.1.9-5.6 2.6-7.5 1.7-1.9 4-2.9 6.9-2.9 2.1 0 3.9.5 5.3 1.4.4.3.6.7.6 1.2v2.5c0 .6-.3.9-.8.9s-.8-.3-.8-.9v-2.3zM134.9 171.6l-8.4 8.2 8.8 8.7h1.3c.2 0 .4.1.6.2.1.2.2.3.2.6 0 .2-.1.4-.2.6-.1.1-.3.2-.6.2h-5.1c-.2 0-.4-.1-.6-.2-.1-.1-.2-.3-.2-.6 0-.2.1-.4.2-.6.1-.2.3-.2.6-.2h1.4l-8.3-7.9v7.9h1.8c.2 0 .4.1.6.2.1.2.2.3.2.6 0 .2-.1.4-.2.6-.1.1-.3.2-.6.2H121c-.2 0-.4-.1-.6-.2-.1-.1-.2-.3-.2-.6 0-.2.1-.4.2-.6.1-.2.3-.2.6-.2h1.8v-16.9H121c-.2 0-.4-.1-.6-.2-.1-.1-.2-.3-.2-.6 0-.2.1-.4.2-.6.1-.2.3-.2.6-.2h5.4c.2 0 .4.1.6.2.1.2.2.3.2.6 0 .2-.1.4-.2.6-.1.1-.3.2-.6.2h-1.8v7.8l7.9-7.8H131c-.2 0-.4-.1-.6-.2-.1-.1-.2-.3-.2-.6 0-.2.1-.4.2-.6.1-.2.3-.2.6-.2h4.9c.2 0 .4.1.6.2.1.2.2.3.2.6 0 .2-.1.4-.2.6-.1.1-.3.2-.6.2h-1zM142.8 171.6v7.2h8c.2 0 .4.1.6.2.1.2.2.3.2.6 0 .2-.1.4-.2.6-.1.1-.3.2-.6.2h-8v8.1h9.3v-2.8c0-.6.3-.9.8-.9s.8.3.8.9v3.5c0 .3-.1.5-.2.7-.1.2-.4.3-.6.3h-13.6c-.2 0-.4-.1-.6-.2-.1-.1-.2-.3-.2-.6 0-.2.1-.4.2-.6.1-.2.3-.2.6-.2h1.8v-16.9h-1.8c-.2 0-.4-.1-.6-.2-.1-.1-.2-.3-.2-.6 0-.2.1-.4.2-.6.1-.2.3-.2.6-.2h13.3c.3 0 .5.1.6.3.1.2.2.4.2.7v3.2c0 .6-.3.9-.8.9s-.8-.3-.8-.9v-2.6h-9zM156.7 190.1c-.2 0-.4-.1-.6-.2-.1-.1-.2-.3-.2-.6 0-.2.1-.4.2-.6.1-.2.3-.2.6-.2h1.8v-16.9h-1.8c-.2 0-.4-.1-.6-.2-.1-.1-.2-.3-.2-.6 0-.2.1-.4.2-.6.1-.2.3-.2.6-.2h3.5c1.1-.1 2.2-.1 3.2-.1 4.8 0 7.2 1.9 7.2 5.6 0 1.5-.4 2.6-1.1 3.6-.7.9-1.7 1.6-3 2.1l4.5 7.3h1.5c.2 0 .4.1.6.2.1.2.2.3.2.6 0 .2-.1.4-.2.6-.1.1-.3.2-.6.2h-2.1c-.3 0-.6-.2-.9-.7l-4.8-7.8c-.5.1-1.1.1-1.8.1-1 0-1.9-.1-2.7-.2v6.9h1.8c.2 0 .4.1.6.2.1.2.2.3.2.6 0 .2-.1.4-.2.6-.1.1-.3.2-.6.2h-5.3zm3.6-18.5v8.4c.9.1 1.8.2 2.6.2 2.1 0 3.6-.4 4.6-1.1s1.5-1.9 1.5-3.6c0-1.5-.5-2.5-1.5-3.1-1-.6-2.4-.9-4.1-.9-.4 0-1.4 0-3.1.1z"/></g><linearGradient id="a" gradientUnits="userSpaceOnUse" x1="0" y1="135.47" x2="223.814" y2="135.47"><stop offset="0" stop-color="#e79f03"/><stop offset=".092" stop-color="#edaa09"/><stop offset=".353" stop-color="#fac619"/><stop offset=".507" stop-color="#ffd01f"/><stop offset=".716" stop-color="#fece1e"/><stop offset=".826" stop-color="#fac619"/><stop offset=".912" stop-color="#f3b811"/><stop offset=".986" stop-color="#eaa507"/><stop offset="1" stop-color="#e8a104"/></linearGradient><path fill="url(#a)" d="M0 117.5h22.1l5.3 15.9 5.1-15.9h21.3v7.6H51v20.8h2.8v7.6H35.3v-7.6H38v-18.3l-9.2 25.8h-5l-10.4-25.9v18.3h2.8v7.6H0v-7.6h2.8V125H0v-7.5zm95.4 18c0 3.4-.4 6.3-1.2 8.6-.8 2.4-2 4.3-3.5 5.8s-3.4 2.6-5.6 3.2c-2.2.7-4.6 1-7.3 1s-5.1-.3-7.3-1-4-1.8-5.6-3.2c-1.5-1.5-2.7-3.4-3.5-5.8-.8-2.4-1.2-5.2-1.2-8.6 0-3.4.4-6.2 1.2-8.6.8-2.4 2-4.3 3.5-5.8s3.4-2.6 5.6-3.2c2.2-.7 4.6-1 7.3-1s5.1.3 7.3 1 4 1.8 5.6 3.2c1.5 1.5 2.7 3.4 3.5 5.8.8 2.3 1.2 5.2 1.2 8.6zm-17.7 10.4c1 0 1.8-.3 2.4-.8.5-.5.8-1.4.8-2.6v-14c0-1.2-.3-2.1-.8-2.6s-1.3-.8-2.4-.8c-1 0-1.8.3-2.4.8-.5.5-.8 1.4-.8 2.6v14c0 1.2.3 2.1.8 2.6.6.5 1.4.8 2.4.8zm50.5-28.4h16.2v7.6h-2.8v28.4h-13l-13.5-20.8V146h2.8v7.6h-16.2V146h2.8v-20.8h-2.8v-7.6h17.1l12.2 18.6v-11h-2.8v-7.7zm44.1 7.6h-5.6v7.3h4.1v5.3h-4.1v8.2h5.6v-7.3h10.4v14.9H151v-7.6h2.8v-20.8H151v-7.6h31.7v14h-10.4v-6.4zm34.9 0h-1.6l2.7 8.1h.5l2.7-8.1h-1.6v-7.6h14v7.6h-1.6l-8.9 16v4.8h2.8v7.6h-18.5v-7.6h2.8v-4.8l-9.2-16h-1.7v-7.6h17.7v7.6z"/><g><path fill="#E79F03" d="M118.7 98.6h-18c-14.8 0-25.6-14.1-21.7-28.4l17.2-37.6h27.1l17.2 37.6c3.8 14.3-7 28.4-21.8 28.4z"/><path opacity=".25" d="M140.4 70.2l-17.2-37.6s11.3 35.3 11.7 42.4c.3 6.8-3.3 14.6-8 19.3-1.6 1.6-3.5 3-5.5 4.2 13.4-1.6 22.6-14.9 19-28.3z"/><path fill="#E79F03" d="M117.2 9.6l-4-7.4c-1.6-2.9-5.8-2.9-7.3 0l-4 7.4c-.9 1.6-2.8 2.3-4.4 1.6L93 9.3c-3.8-1.6-7.3 2.8-5 6.2l8.5 11.4h26.3l8.5-11.4c2.3-3.4-1.2-7.8-5-6.2l-4.6 1.9c-1.7.7-3.6 0-4.5-1.6z"/><path opacity=".25" d="M128.7 9c-1.4 4-3.8 7.8-6.6 10.6-3.5 3.5-8.3 6.1-13.3 7.3h13.9l8.5-11.4c1.9-2.7.1-5.9-2.5-6.5z"/><path fill="#FFD01F" d="M121.8 33.7H97.4c-2 0-3.6-1.6-3.6-3.6V30c0-2 1.6-3.6 3.6-3.6h24.4c2 0 3.6 1.6 3.6 3.6v.1c0 2-1.6 3.6-3.6 3.6z"/><path d="M116.5 58.2c-.2-.2-.5-.5-.9-.7-.4-.3-.9-.5-1.4-.8-.5-.2-1.1-.5-1.8-.6-.6-.2-1.3-.3-2-.3V63l.7.1c1.3.3 2.4.6 3.4 1s1.9.8 2.6 1.4c.7.5 1.2 1.2 1.6 2 .4.8.6 1.7.6 2.8 0 1.2-.2 2.3-.7 3.2-.4.9-1.1 1.6-1.8 2.2-.8.6-1.7 1-2.7 1.3-1 .3-2.1.4-3.3.5v3.7H109v-3.7c-1.7-.1-3.3-.4-4.8-1-1.5-.5-2.9-1.3-4.2-2.3l1.8-3.3c.3.3.6.6 1.1.9.5.3 1.1.6 1.7.9.7.3 1.4.6 2.1.8.8.2 1.6.4 2.4.5v-7.2c-.1 0-.3-.1-.4-.1-.2 0-.3-.1-.4-.1-1.2-.3-2.3-.7-3.2-1-.9-.4-1.7-.8-2.3-1.3-.6-.5-1.1-1.1-1.4-1.8-.3-.7-.5-1.5-.5-2.5 0-1.1.2-2.2.6-3 .4-.9 1-1.6 1.7-2.3.7-.6 1.6-1.1 2.5-1.5 1-.4 2-.6 3.2-.7V49h1.8v3.5c1.5.1 2.9.4 4.2.9 1.3.5 2.4 1.1 3.4 1.8l-1.8 3zm-11.5.9c0 1 .3 1.7 1 2.2.7.5 1.7.9 3.1 1.3v-6.9c-1.4.1-2.5.4-3.1 1-.7.6-1 1.4-1 2.4zm10.1 11.6c0-1-.4-1.8-1.2-2.3-.8-.5-2-1-3.4-1.4v6.9c1.5 0 2.6-.3 3.4-.8.8-.6 1.2-1.4 1.2-2.4z"/></g></svg>